<svg xmlns="http://www.w3.org/2000/svg" width="1920" height="560" viewBox="0 0 1920 560" role="img" aria-label="YASAL BİLGİLENDİRME">
  <defs>
    <linearGradient id="bg" x1="0" y1="0" x2="1" y2="1">
      <stop offset="0%" stop-color="#F7F2E8"/>
      <stop offset="100%" stop-color="#E7E2D8"/>
    </linearGradient>
    <pattern id="grid" width="40" height="40" patternUnits="userSpaceOnUse">
      <path d="M40 0 L0 0 0 40" fill="none" stroke="rgba(6,24,36,0.06)" stroke-width="1"/>
    </pattern>
  </defs>
  <rect width="1920" height="560" fill="url(#bg)"/>
  <rect width="1920" height="560" fill="url(#grid)"/>
  <rect x="-20.0" y="409.8" width="54.2" height="150.2" fill="rgba(6,24,36,0.08)" stroke="rgba(6,24,36,0.18)" stroke-width="1"/>
  <rect x="-12.0" y="421.8" width="8" height="10" fill="#0B5145" opacity="0.20"/>
  <rect x="-12.0" y="499.8" width="8" height="10" fill="#0B5145" opacity="0.21"/>
  <rect x="-12.0" y="525.8" width="8" height="10" fill="#0B5145" opacity="0.32"/>
  <rect x="10.0" y="421.8" width="8" height="10" fill="#0B5145" opacity="0.18"/>
  <rect x="10.0" y="525.8" width="8" height="10" fill="#0B5145" opacity="0.24"/>
  <rect x="51.7" y="294.5" width="128.9" height="265.5" fill="rgba(6,24,36,0.08)" stroke="rgba(6,24,36,0.18)" stroke-width="1"/>
  <rect x="59.7" y="306.5" width="8" height="10" fill="#0B5145" opacity="0.41"/>
  <rect x="59.7" y="332.5" width="8" height="10" fill="#0B5145" opacity="0.31"/>
  <rect x="59.7" y="410.5" width="8" height="10" fill="#0B5145" opacity="0.31"/>
  <rect x="59.7" y="436.5" width="8" height="10" fill="#0B5145" opacity="0.38"/>
  <rect x="59.7" y="462.5" width="8" height="10" fill="#0B5145" opacity="0.26"/>
  <rect x="59.7" y="540.5" width="8" height="10" fill="#0B5145" opacity="0.37"/>
  <rect x="81.7" y="306.5" width="8" height="10" fill="#0B5145" opacity="0.14"/>
  <rect x="81.7" y="410.5" width="8" height="10" fill="#0B5145" opacity="0.20"/>
  <rect x="81.7" y="436.5" width="8" height="10" fill="#0B5145" opacity="0.36"/>
  <rect x="81.7" y="488.5" width="8" height="10" fill="#0B5145" opacity="0.18"/>
  <rect x="81.7" y="514.5" width="8" height="10" fill="#0B5145" opacity="0.41"/>
  <rect x="81.7" y="540.5" width="8" height="10" fill="#0B5145" opacity="0.40"/>
  <rect x="103.7" y="332.5" width="8" height="10" fill="#0B5145" opacity="0.34"/>
  <rect x="103.7" y="358.5" width="8" height="10" fill="#0B5145" opacity="0.17"/>
  <rect x="103.7" y="410.5" width="8" height="10" fill="#0B5145" opacity="0.18"/>
  <rect x="103.7" y="514.5" width="8" height="10" fill="#0B5145" opacity="0.41"/>
  <rect x="103.7" y="540.5" width="8" height="10" fill="#0B5145" opacity="0.22"/>
  <rect x="125.7" y="332.5" width="8" height="10" fill="#0B5145" opacity="0.33"/>
  <rect x="125.7" y="358.5" width="8" height="10" fill="#0B5145" opacity="0.16"/>
  <rect x="125.7" y="436.5" width="8" height="10" fill="#0B5145" opacity="0.19"/>
  <rect x="125.7" y="462.5" width="8" height="10" fill="#0B5145" opacity="0.40"/>
  <rect x="125.7" y="488.5" width="8" height="10" fill="#0B5145" opacity="0.39"/>
  <rect x="125.7" y="540.5" width="8" height="10" fill="#0B5145" opacity="0.20"/>
  <rect x="147.7" y="332.5" width="8" height="10" fill="#0B5145" opacity="0.26"/>
  <rect x="147.7" y="410.5" width="8" height="10" fill="#0B5145" opacity="0.39"/>
  <rect x="147.7" y="462.5" width="8" height="10" fill="#0B5145" opacity="0.42"/>
  <rect x="147.7" y="514.5" width="8" height="10" fill="#0B5145" opacity="0.28"/>
  <rect x="147.7" y="540.5" width="8" height="10" fill="#0B5145" opacity="0.25"/>
  <rect x="191.5" y="149.5" width="80.1" height="410.5" fill="rgba(6,24,36,0.08)" stroke="rgba(6,24,36,0.18)" stroke-width="1"/>
  <rect x="199.5" y="161.5" width="8" height="10" fill="#0B5145" opacity="0.35"/>
  <rect x="199.5" y="187.5" width="8" height="10" fill="#0B5145" opacity="0.35"/>
  <rect x="199.5" y="213.5" width="8" height="10" fill="#0B5145" opacity="0.15"/>
  <rect x="199.5" y="239.5" width="8" height="10" fill="#0B5145" opacity="0.36"/>
  <rect x="199.5" y="343.5" width="8" height="10" fill="#0B5145" opacity="0.28"/>
  <rect x="199.5" y="395.5" width="8" height="10" fill="#0B5145" opacity="0.30"/>
  <rect x="199.5" y="447.5" width="8" height="10" fill="#0B5145" opacity="0.14"/>
  <rect x="199.5" y="473.5" width="8" height="10" fill="#0B5145" opacity="0.21"/>
  <rect x="199.5" y="499.5" width="8" height="10" fill="#0B5145" opacity="0.25"/>
  <rect x="221.5" y="187.5" width="8" height="10" fill="#0B5145" opacity="0.20"/>
  <rect x="221.5" y="213.5" width="8" height="10" fill="#0B5145" opacity="0.17"/>
  <rect x="221.5" y="239.5" width="8" height="10" fill="#0B5145" opacity="0.31"/>
  <rect x="221.5" y="265.5" width="8" height="10" fill="#0B5145" opacity="0.35"/>
  <rect x="221.5" y="291.5" width="8" height="10" fill="#0B5145" opacity="0.25"/>
  <rect x="221.5" y="343.5" width="8" height="10" fill="#0B5145" opacity="0.29"/>
  <rect x="221.5" y="395.5" width="8" height="10" fill="#0B5145" opacity="0.36"/>
  <rect x="221.5" y="421.5" width="8" height="10" fill="#0B5145" opacity="0.18"/>
  <rect x="221.5" y="447.5" width="8" height="10" fill="#0B5145" opacity="0.30"/>
  <rect x="243.5" y="161.5" width="8" height="10" fill="#0B5145" opacity="0.40"/>
  <rect x="243.5" y="187.5" width="8" height="10" fill="#0B5145" opacity="0.21"/>
  <rect x="243.5" y="265.5" width="8" height="10" fill="#0B5145" opacity="0.19"/>
  <rect x="243.5" y="291.5" width="8" height="10" fill="#0B5145" opacity="0.26"/>
  <rect x="243.5" y="343.5" width="8" height="10" fill="#0B5145" opacity="0.21"/>
  <rect x="243.5" y="395.5" width="8" height="10" fill="#0B5145" opacity="0.23"/>
  <rect x="243.5" y="447.5" width="8" height="10" fill="#0B5145" opacity="0.18"/>
  <rect x="287.8" y="212.1" width="79.5" height="347.9" fill="rgba(6,24,36,0.08)" stroke="rgba(6,24,36,0.18)" stroke-width="1"/>
  <rect x="295.8" y="224.1" width="8" height="10" fill="#0B5145" opacity="0.16"/>
  <rect x="295.8" y="328.1" width="8" height="10" fill="#0B5145" opacity="0.16"/>
  <rect x="295.8" y="432.1" width="8" height="10" fill="#0B5145" opacity="0.12"/>
  <rect x="295.8" y="484.1" width="8" height="10" fill="#0B5145" opacity="0.25"/>
  <rect x="295.8" y="510.1" width="8" height="10" fill="#0B5145" opacity="0.39"/>
  <rect x="317.8" y="224.1" width="8" height="10" fill="#0B5145" opacity="0.29"/>
  <rect x="317.8" y="276.1" width="8" height="10" fill="#0B5145" opacity="0.26"/>
  <rect x="317.8" y="302.1" width="8" height="10" fill="#0B5145" opacity="0.19"/>
  <rect x="317.8" y="328.1" width="8" height="10" fill="#0B5145" opacity="0.20"/>
  <rect x="317.8" y="354.1" width="8" height="10" fill="#0B5145" opacity="0.27"/>
  <rect x="317.8" y="432.1" width="8" height="10" fill="#0B5145" opacity="0.28"/>
  <rect x="317.8" y="458.1" width="8" height="10" fill="#0B5145" opacity="0.28"/>
  <rect x="317.8" y="536.1" width="8" height="10" fill="#0B5145" opacity="0.40"/>
  <rect x="339.8" y="250.1" width="8" height="10" fill="#0B5145" opacity="0.33"/>
  <rect x="339.8" y="276.1" width="8" height="10" fill="#0B5145" opacity="0.39"/>
  <rect x="339.8" y="302.1" width="8" height="10" fill="#0B5145" opacity="0.25"/>
  <rect x="339.8" y="328.1" width="8" height="10" fill="#0B5145" opacity="0.28"/>
  <rect x="339.8" y="354.1" width="8" height="10" fill="#0B5145" opacity="0.35"/>
  <rect x="339.8" y="380.1" width="8" height="10" fill="#0B5145" opacity="0.17"/>
  <rect x="339.8" y="406.1" width="8" height="10" fill="#0B5145" opacity="0.33"/>
  <rect x="339.8" y="458.1" width="8" height="10" fill="#0B5145" opacity="0.14"/>
  <rect x="339.8" y="484.1" width="8" height="10" fill="#0B5145" opacity="0.29"/>
  <rect x="388.6" y="184.3" width="185.8" height="375.7" fill="rgba(6,24,36,0.08)" stroke="rgba(6,24,36,0.18)" stroke-width="1"/>
  <rect x="396.6" y="248.3" width="8" height="10" fill="#0B5145" opacity="0.12"/>
  <rect x="396.6" y="274.3" width="8" height="10" fill="#0B5145" opacity="0.36"/>
  <rect x="396.6" y="300.3" width="8" height="10" fill="#0B5145" opacity="0.25"/>
  <rect x="396.6" y="404.3" width="8" height="10" fill="#0B5145" opacity="0.39"/>
  <rect x="396.6" y="430.3" width="8" height="10" fill="#0B5145" opacity="0.41"/>
  <rect x="396.6" y="456.3" width="8" height="10" fill="#0B5145" opacity="0.31"/>
  <rect x="396.6" y="482.3" width="8" height="10" fill="#0B5145" opacity="0.34"/>
  <rect x="396.6" y="508.3" width="8" height="10" fill="#0B5145" opacity="0.32"/>
  <rect x="418.6" y="222.3" width="8" height="10" fill="#0B5145" opacity="0.34"/>
  <rect x="418.6" y="248.3" width="8" height="10" fill="#0B5145" opacity="0.33"/>
  <rect x="418.6" y="274.3" width="8" height="10" fill="#0B5145" opacity="0.26"/>
  <rect x="418.6" y="300.3" width="8" height="10" fill="#0B5145" opacity="0.16"/>
  <rect x="418.6" y="326.3" width="8" height="10" fill="#0B5145" opacity="0.27"/>
  <rect x="418.6" y="352.3" width="8" height="10" fill="#0B5145" opacity="0.41"/>
  <rect x="418.6" y="404.3" width="8" height="10" fill="#0B5145" opacity="0.31"/>
  <rect x="418.6" y="430.3" width="8" height="10" fill="#0B5145" opacity="0.23"/>
  <rect x="418.6" y="456.3" width="8" height="10" fill="#0B5145" opacity="0.18"/>
  <rect x="418.6" y="482.3" width="8" height="10" fill="#0B5145" opacity="0.15"/>
  <rect x="418.6" y="508.3" width="8" height="10" fill="#0B5145" opacity="0.13"/>
  <rect x="418.6" y="534.3" width="8" height="10" fill="#0B5145" opacity="0.37"/>
  <rect x="440.6" y="222.3" width="8" height="10" fill="#0B5145" opacity="0.19"/>
  <rect x="440.6" y="248.3" width="8" height="10" fill="#0B5145" opacity="0.40"/>
  <rect x="440.6" y="378.3" width="8" height="10" fill="#0B5145" opacity="0.38"/>
  <rect x="440.6" y="404.3" width="8" height="10" fill="#0B5145" opacity="0.39"/>
  <rect x="440.6" y="508.3" width="8" height="10" fill="#0B5145" opacity="0.28"/>
  <rect x="440.6" y="534.3" width="8" height="10" fill="#0B5145" opacity="0.32"/>
  <rect x="462.6" y="300.3" width="8" height="10" fill="#0B5145" opacity="0.21"/>
  <rect x="462.6" y="352.3" width="8" height="10" fill="#0B5145" opacity="0.33"/>
  <rect x="462.6" y="378.3" width="8" height="10" fill="#0B5145" opacity="0.25"/>
  <rect x="462.6" y="404.3" width="8" height="10" fill="#0B5145" opacity="0.32"/>
  <rect x="462.6" y="430.3" width="8" height="10" fill="#0B5145" opacity="0.19"/>
  <rect x="462.6" y="456.3" width="8" height="10" fill="#0B5145" opacity="0.12"/>
  <rect x="462.6" y="482.3" width="8" height="10" fill="#0B5145" opacity="0.14"/>
  <rect x="462.6" y="508.3" width="8" height="10" fill="#0B5145" opacity="0.19"/>
  <rect x="462.6" y="534.3" width="8" height="10" fill="#0B5145" opacity="0.32"/>
  <rect x="484.6" y="196.3" width="8" height="10" fill="#0B5145" opacity="0.23"/>
  <rect x="484.6" y="222.3" width="8" height="10" fill="#0B5145" opacity="0.26"/>
  <rect x="484.6" y="248.3" width="8" height="10" fill="#0B5145" opacity="0.27"/>
  <rect x="484.6" y="326.3" width="8" height="10" fill="#0B5145" opacity="0.13"/>
  <rect x="484.6" y="352.3" width="8" height="10" fill="#0B5145" opacity="0.24"/>
  <rect x="484.6" y="378.3" width="8" height="10" fill="#0B5145" opacity="0.40"/>
  <rect x="484.6" y="430.3" width="8" height="10" fill="#0B5145" opacity="0.29"/>
  <rect x="484.6" y="456.3" width="8" height="10" fill="#0B5145" opacity="0.15"/>
  <rect x="484.6" y="482.3" width="8" height="10" fill="#0B5145" opacity="0.35"/>
  <rect x="484.6" y="508.3" width="8" height="10" fill="#0B5145" opacity="0.41"/>
  <rect x="506.6" y="222.3" width="8" height="10" fill="#0B5145" opacity="0.15"/>
  <rect x="506.6" y="352.3" width="8" height="10" fill="#0B5145" opacity="0.21"/>
  <rect x="506.6" y="404.3" width="8" height="10" fill="#0B5145" opacity="0.34"/>
  <rect x="506.6" y="430.3" width="8" height="10" fill="#0B5145" opacity="0.33"/>
  <rect x="506.6" y="482.3" width="8" height="10" fill="#0B5145" opacity="0.16"/>
  <rect x="506.6" y="508.3" width="8" height="10" fill="#0B5145" opacity="0.21"/>
  <rect x="506.6" y="534.3" width="8" height="10" fill="#0B5145" opacity="0.32"/>
  <rect x="528.6" y="248.3" width="8" height="10" fill="#0B5145" opacity="0.19"/>
  <rect x="528.6" y="300.3" width="8" height="10" fill="#0B5145" opacity="0.26"/>
  <rect x="528.6" y="352.3" width="8" height="10" fill="#0B5145" opacity="0.33"/>
  <rect x="528.6" y="378.3" width="8" height="10" fill="#0B5145" opacity="0.23"/>
  <rect x="528.6" y="430.3" width="8" height="10" fill="#0B5145" opacity="0.13"/>
  <rect x="528.6" y="456.3" width="8" height="10" fill="#0B5145" opacity="0.29"/>
  <rect x="528.6" y="482.3" width="8" height="10" fill="#0B5145" opacity="0.32"/>
  <rect x="550.6" y="196.3" width="8" height="10" fill="#0B5145" opacity="0.22"/>
  <rect x="550.6" y="248.3" width="8" height="10" fill="#0B5145" opacity="0.26"/>
  <rect x="550.6" y="274.3" width="8" height="10" fill="#0B5145" opacity="0.26"/>
  <rect x="550.6" y="378.3" width="8" height="10" fill="#0B5145" opacity="0.33"/>
  <rect x="550.6" y="404.3" width="8" height="10" fill="#0B5145" opacity="0.36"/>
  <rect x="550.6" y="456.3" width="8" height="10" fill="#0B5145" opacity="0.42"/>
  <rect x="550.6" y="482.3" width="8" height="10" fill="#0B5145" opacity="0.40"/>
  <rect x="550.6" y="534.3" width="8" height="10" fill="#0B5145" opacity="0.25"/>
  <rect x="589.4" y="332.0" width="108.7" height="228.0" fill="rgba(6,24,36,0.08)" stroke="rgba(6,24,36,0.18)" stroke-width="1"/>
  <rect x="597.4" y="344.0" width="8" height="10" fill="#0B5145" opacity="0.28"/>
  <rect x="597.4" y="370.0" width="8" height="10" fill="#0B5145" opacity="0.24"/>
  <rect x="597.4" y="396.0" width="8" height="10" fill="#0B5145" opacity="0.34"/>
  <rect x="597.4" y="474.0" width="8" height="10" fill="#0B5145" opacity="0.34"/>
  <rect x="619.4" y="344.0" width="8" height="10" fill="#0B5145" opacity="0.36"/>
  <rect x="619.4" y="396.0" width="8" height="10" fill="#0B5145" opacity="0.13"/>
  <rect x="619.4" y="422.0" width="8" height="10" fill="#0B5145" opacity="0.32"/>
  <rect x="619.4" y="526.0" width="8" height="10" fill="#0B5145" opacity="0.14"/>
  <rect x="641.4" y="344.0" width="8" height="10" fill="#0B5145" opacity="0.31"/>
  <rect x="641.4" y="370.0" width="8" height="10" fill="#0B5145" opacity="0.32"/>
  <rect x="641.4" y="422.0" width="8" height="10" fill="#0B5145" opacity="0.15"/>
  <rect x="641.4" y="448.0" width="8" height="10" fill="#0B5145" opacity="0.41"/>
  <rect x="641.4" y="500.0" width="8" height="10" fill="#0B5145" opacity="0.32"/>
  <rect x="641.4" y="526.0" width="8" height="10" fill="#0B5145" opacity="0.20"/>
  <rect x="663.4" y="370.0" width="8" height="10" fill="#0B5145" opacity="0.26"/>
  <rect x="663.4" y="396.0" width="8" height="10" fill="#0B5145" opacity="0.31"/>
  <rect x="663.4" y="422.0" width="8" height="10" fill="#0B5145" opacity="0.25"/>
  <rect x="663.4" y="448.0" width="8" height="10" fill="#0B5145" opacity="0.19"/>
  <rect x="663.4" y="474.0" width="8" height="10" fill="#0B5145" opacity="0.40"/>
  <rect x="720.3" y="356.6" width="186.3" height="203.4" fill="rgba(6,24,36,0.08)" stroke="rgba(6,24,36,0.18)" stroke-width="1"/>
  <rect x="728.3" y="368.6" width="8" height="10" fill="#0B5145" opacity="0.21"/>
  <rect x="728.3" y="420.6" width="8" height="10" fill="#0B5145" opacity="0.41"/>
  <rect x="728.3" y="446.6" width="8" height="10" fill="#0B5145" opacity="0.22"/>
  <rect x="728.3" y="524.6" width="8" height="10" fill="#0B5145" opacity="0.24"/>
  <rect x="750.3" y="368.6" width="8" height="10" fill="#0B5145" opacity="0.15"/>
  <rect x="750.3" y="420.6" width="8" height="10" fill="#0B5145" opacity="0.36"/>
  <rect x="750.3" y="472.6" width="8" height="10" fill="#0B5145" opacity="0.36"/>
  <rect x="772.3" y="368.6" width="8" height="10" fill="#0B5145" opacity="0.13"/>
  <rect x="772.3" y="394.6" width="8" height="10" fill="#0B5145" opacity="0.13"/>
  <rect x="772.3" y="420.6" width="8" height="10" fill="#0B5145" opacity="0.15"/>
  <rect x="772.3" y="472.6" width="8" height="10" fill="#0B5145" opacity="0.14"/>
  <rect x="772.3" y="498.6" width="8" height="10" fill="#0B5145" opacity="0.28"/>
  <rect x="772.3" y="524.6" width="8" height="10" fill="#0B5145" opacity="0.36"/>
  <rect x="794.3" y="420.6" width="8" height="10" fill="#0B5145" opacity="0.15"/>
  <rect x="794.3" y="472.6" width="8" height="10" fill="#0B5145" opacity="0.30"/>
  <rect x="794.3" y="498.6" width="8" height="10" fill="#0B5145" opacity="0.39"/>
  <rect x="794.3" y="524.6" width="8" height="10" fill="#0B5145" opacity="0.15"/>
  <rect x="816.3" y="420.6" width="8" height="10" fill="#0B5145" opacity="0.39"/>
  <rect x="816.3" y="446.6" width="8" height="10" fill="#0B5145" opacity="0.37"/>
  <rect x="816.3" y="472.6" width="8" height="10" fill="#0B5145" opacity="0.36"/>
  <rect x="816.3" y="498.6" width="8" height="10" fill="#0B5145" opacity="0.28"/>
  <rect x="838.3" y="368.6" width="8" height="10" fill="#0B5145" opacity="0.12"/>
  <rect x="838.3" y="420.6" width="8" height="10" fill="#0B5145" opacity="0.30"/>
  <rect x="838.3" y="446.6" width="8" height="10" fill="#0B5145" opacity="0.33"/>
  <rect x="860.3" y="368.6" width="8" height="10" fill="#0B5145" opacity="0.18"/>
  <rect x="860.3" y="394.6" width="8" height="10" fill="#0B5145" opacity="0.32"/>
  <rect x="860.3" y="420.6" width="8" height="10" fill="#0B5145" opacity="0.15"/>
  <rect x="860.3" y="446.6" width="8" height="10" fill="#0B5145" opacity="0.22"/>
  <rect x="860.3" y="472.6" width="8" height="10" fill="#0B5145" opacity="0.13"/>
  <rect x="860.3" y="524.6" width="8" height="10" fill="#0B5145" opacity="0.13"/>
  <rect x="882.3" y="368.6" width="8" height="10" fill="#0B5145" opacity="0.20"/>
  <rect x="882.3" y="420.6" width="8" height="10" fill="#0B5145" opacity="0.19"/>
  <rect x="882.3" y="524.6" width="8" height="10" fill="#0B5145" opacity="0.13"/>
  <rect x="924.1" y="297.2" width="109.8" height="262.8" fill="rgba(6,24,36,0.08)" stroke="rgba(6,24,36,0.18)" stroke-width="1"/>
  <rect x="932.1" y="309.2" width="8" height="10" fill="#0B5145" opacity="0.32"/>
  <rect x="932.1" y="335.2" width="8" height="10" fill="#0B5145" opacity="0.19"/>
  <rect x="932.1" y="465.2" width="8" height="10" fill="#0B5145" opacity="0.17"/>
  <rect x="932.1" y="491.2" width="8" height="10" fill="#0B5145" opacity="0.19"/>
  <rect x="932.1" y="543.2" width="8" height="10" fill="#0B5145" opacity="0.25"/>
  <rect x="954.1" y="309.2" width="8" height="10" fill="#0B5145" opacity="0.17"/>
  <rect x="954.1" y="361.2" width="8" height="10" fill="#0B5145" opacity="0.27"/>
  <rect x="954.1" y="413.2" width="8" height="10" fill="#0B5145" opacity="0.26"/>
  <rect x="954.1" y="439.2" width="8" height="10" fill="#0B5145" opacity="0.15"/>
  <rect x="954.1" y="517.2" width="8" height="10" fill="#0B5145" opacity="0.30"/>
  <rect x="976.1" y="439.2" width="8" height="10" fill="#0B5145" opacity="0.39"/>
  <rect x="976.1" y="465.2" width="8" height="10" fill="#0B5145" opacity="0.18"/>
  <rect x="998.1" y="335.2" width="8" height="10" fill="#0B5145" opacity="0.37"/>
  <rect x="998.1" y="387.2" width="8" height="10" fill="#0B5145" opacity="0.38"/>
  <rect x="998.1" y="439.2" width="8" height="10" fill="#0B5145" opacity="0.28"/>
  <rect x="998.1" y="465.2" width="8" height="10" fill="#0B5145" opacity="0.16"/>
  <rect x="998.1" y="543.2" width="8" height="10" fill="#0B5145" opacity="0.19"/>
  <rect x="1048.3" y="234.0" width="181.9" height="326.0" fill="rgba(6,24,36,0.08)" stroke="rgba(6,24,36,0.18)" stroke-width="1"/>
  <rect x="1056.3" y="246.0" width="8" height="10" fill="#0B5145" opacity="0.28"/>
  <rect x="1056.3" y="272.0" width="8" height="10" fill="#0B5145" opacity="0.30"/>
  <rect x="1056.3" y="298.0" width="8" height="10" fill="#0B5145" opacity="0.21"/>
  <rect x="1056.3" y="350.0" width="8" height="10" fill="#0B5145" opacity="0.16"/>
  <rect x="1056.3" y="402.0" width="8" height="10" fill="#0B5145" opacity="0.23"/>
  <rect x="1056.3" y="428.0" width="8" height="10" fill="#0B5145" opacity="0.22"/>
  <rect x="1056.3" y="454.0" width="8" height="10" fill="#0B5145" opacity="0.22"/>
  <rect x="1056.3" y="480.0" width="8" height="10" fill="#0B5145" opacity="0.41"/>
  <rect x="1056.3" y="506.0" width="8" height="10" fill="#0B5145" opacity="0.28"/>
  <rect x="1078.3" y="246.0" width="8" height="10" fill="#0B5145" opacity="0.31"/>
  <rect x="1078.3" y="298.0" width="8" height="10" fill="#0B5145" opacity="0.19"/>
  <rect x="1078.3" y="350.0" width="8" height="10" fill="#0B5145" opacity="0.13"/>
  <rect x="1078.3" y="454.0" width="8" height="10" fill="#0B5145" opacity="0.39"/>
  <rect x="1078.3" y="480.0" width="8" height="10" fill="#0B5145" opacity="0.35"/>
  <rect x="1100.3" y="272.0" width="8" height="10" fill="#0B5145" opacity="0.38"/>
  <rect x="1100.3" y="298.0" width="8" height="10" fill="#0B5145" opacity="0.22"/>
  <rect x="1100.3" y="324.0" width="8" height="10" fill="#0B5145" opacity="0.25"/>
  <rect x="1100.3" y="350.0" width="8" height="10" fill="#0B5145" opacity="0.18"/>
  <rect x="1100.3" y="454.0" width="8" height="10" fill="#0B5145" opacity="0.23"/>
  <rect x="1100.3" y="480.0" width="8" height="10" fill="#0B5145" opacity="0.40"/>
  <rect x="1100.3" y="532.0" width="8" height="10" fill="#0B5145" opacity="0.29"/>
  <rect x="1122.3" y="246.0" width="8" height="10" fill="#0B5145" opacity="0.19"/>
  <rect x="1122.3" y="272.0" width="8" height="10" fill="#0B5145" opacity="0.40"/>
  <rect x="1122.3" y="298.0" width="8" height="10" fill="#0B5145" opacity="0.16"/>
  <rect x="1122.3" y="402.0" width="8" height="10" fill="#0B5145" opacity="0.20"/>
  <rect x="1122.3" y="428.0" width="8" height="10" fill="#0B5145" opacity="0.38"/>
  <rect x="1122.3" y="480.0" width="8" height="10" fill="#0B5145" opacity="0.15"/>
  <rect x="1122.3" y="506.0" width="8" height="10" fill="#0B5145" opacity="0.27"/>
  <rect x="1122.3" y="532.0" width="8" height="10" fill="#0B5145" opacity="0.16"/>
  <rect x="1144.3" y="246.0" width="8" height="10" fill="#0B5145" opacity="0.22"/>
  <rect x="1144.3" y="350.0" width="8" height="10" fill="#0B5145" opacity="0.27"/>
  <rect x="1144.3" y="376.0" width="8" height="10" fill="#0B5145" opacity="0.24"/>
  <rect x="1144.3" y="454.0" width="8" height="10" fill="#0B5145" opacity="0.42"/>
  <rect x="1144.3" y="532.0" width="8" height="10" fill="#0B5145" opacity="0.32"/>
  <rect x="1166.3" y="246.0" width="8" height="10" fill="#0B5145" opacity="0.42"/>
  <rect x="1166.3" y="298.0" width="8" height="10" fill="#0B5145" opacity="0.19"/>
  <rect x="1166.3" y="324.0" width="8" height="10" fill="#0B5145" opacity="0.15"/>
  <rect x="1166.3" y="428.0" width="8" height="10" fill="#0B5145" opacity="0.29"/>
  <rect x="1166.3" y="454.0" width="8" height="10" fill="#0B5145" opacity="0.12"/>
  <rect x="1166.3" y="480.0" width="8" height="10" fill="#0B5145" opacity="0.23"/>
  <rect x="1166.3" y="532.0" width="8" height="10" fill="#0B5145" opacity="0.35"/>
  <rect x="1188.3" y="246.0" width="8" height="10" fill="#0B5145" opacity="0.35"/>
  <rect x="1188.3" y="272.0" width="8" height="10" fill="#0B5145" opacity="0.35"/>
  <rect x="1188.3" y="298.0" width="8" height="10" fill="#0B5145" opacity="0.37"/>
  <rect x="1188.3" y="376.0" width="8" height="10" fill="#0B5145" opacity="0.21"/>
  <rect x="1188.3" y="428.0" width="8" height="10" fill="#0B5145" opacity="0.31"/>
  <rect x="1188.3" y="506.0" width="8" height="10" fill="#0B5145" opacity="0.22"/>
  <rect x="1210.3" y="246.0" width="8" height="10" fill="#0B5145" opacity="0.15"/>
  <rect x="1210.3" y="272.0" width="8" height="10" fill="#0B5145" opacity="0.36"/>
  <rect x="1210.3" y="350.0" width="8" height="10" fill="#0B5145" opacity="0.26"/>
  <rect x="1210.3" y="376.0" width="8" height="10" fill="#0B5145" opacity="0.14"/>
  <rect x="1210.3" y="428.0" width="8" height="10" fill="#0B5145" opacity="0.15"/>
  <rect x="1210.3" y="480.0" width="8" height="10" fill="#0B5145" opacity="0.39"/>
  <rect x="1210.3" y="506.0" width="8" height="10" fill="#0B5145" opacity="0.31"/>
  <rect x="1210.3" y="532.0" width="8" height="10" fill="#0B5145" opacity="0.42"/>
  <rect x="1240.2" y="256.0" width="54.8" height="304.0" fill="rgba(6,24,36,0.08)" stroke="rgba(6,24,36,0.18)" stroke-width="1"/>
  <rect x="1248.2" y="268.0" width="8" height="10" fill="#0B5145" opacity="0.37"/>
  <rect x="1248.2" y="320.0" width="8" height="10" fill="#0B5145" opacity="0.38"/>
  <rect x="1248.2" y="372.0" width="8" height="10" fill="#0B5145" opacity="0.37"/>
  <rect x="1248.2" y="398.0" width="8" height="10" fill="#0B5145" opacity="0.27"/>
  <rect x="1248.2" y="502.0" width="8" height="10" fill="#0B5145" opacity="0.30"/>
  <rect x="1270.2" y="294.0" width="8" height="10" fill="#0B5145" opacity="0.18"/>
  <rect x="1270.2" y="320.0" width="8" height="10" fill="#0B5145" opacity="0.21"/>
  <rect x="1270.2" y="398.0" width="8" height="10" fill="#0B5145" opacity="0.20"/>
  <rect x="1270.2" y="424.0" width="8" height="10" fill="#0B5145" opacity="0.28"/>
  <rect x="1270.2" y="450.0" width="8" height="10" fill="#0B5145" opacity="0.17"/>
  <rect x="1270.2" y="476.0" width="8" height="10" fill="#0B5145" opacity="0.38"/>
  <rect x="1270.2" y="502.0" width="8" height="10" fill="#0B5145" opacity="0.28"/>
  <rect x="1270.2" y="528.0" width="8" height="10" fill="#0B5145" opacity="0.25"/>
  <rect x="1317.6" y="314.8" width="45.8" height="245.2" fill="rgba(6,24,36,0.08)" stroke="rgba(6,24,36,0.18)" stroke-width="1"/>
  <rect x="1325.6" y="326.8" width="8" height="10" fill="#0B5145" opacity="0.36"/>
  <rect x="1325.6" y="352.8" width="8" height="10" fill="#0B5145" opacity="0.34"/>
  <rect x="1325.6" y="378.8" width="8" height="10" fill="#0B5145" opacity="0.24"/>
  <rect x="1325.6" y="404.8" width="8" height="10" fill="#0B5145" opacity="0.39"/>
  <rect x="1325.6" y="508.8" width="8" height="10" fill="#0B5145" opacity="0.36"/>
  <rect x="1325.6" y="534.8" width="8" height="10" fill="#0B5145" opacity="0.28"/>
  <rect x="1347.6" y="326.8" width="8" height="10" fill="#0B5145" opacity="0.17"/>
  <rect x="1347.6" y="378.8" width="8" height="10" fill="#0B5145" opacity="0.33"/>
  <rect x="1347.6" y="404.8" width="8" height="10" fill="#0B5145" opacity="0.26"/>
  <rect x="1347.6" y="456.8" width="8" height="10" fill="#0B5145" opacity="0.21"/>
  <rect x="1347.6" y="482.8" width="8" height="10" fill="#0B5145" opacity="0.20"/>
  <rect x="1387.8" y="376.5" width="52.5" height="183.5" fill="rgba(6,24,36,0.08)" stroke="rgba(6,24,36,0.18)" stroke-width="1"/>
  <rect x="1395.8" y="388.5" width="8" height="10" fill="#0B5145" opacity="0.37"/>
  <rect x="1395.8" y="466.5" width="8" height="10" fill="#0B5145" opacity="0.21"/>
  <rect x="1395.8" y="492.5" width="8" height="10" fill="#0B5145" opacity="0.36"/>
  <rect x="1395.8" y="518.5" width="8" height="10" fill="#0B5145" opacity="0.28"/>
  <rect x="1417.8" y="388.5" width="8" height="10" fill="#0B5145" opacity="0.27"/>
  <rect x="1417.8" y="440.5" width="8" height="10" fill="#0B5145" opacity="0.23"/>
  <rect x="1417.8" y="466.5" width="8" height="10" fill="#0B5145" opacity="0.20"/>
  <rect x="1417.8" y="544.5" width="8" height="10" fill="#0B5145" opacity="0.20"/>
  <rect x="1460.8" y="304.0" width="183.0" height="256.0" fill="rgba(6,24,36,0.08)" stroke="rgba(6,24,36,0.18)" stroke-width="1"/>
  <rect x="1468.8" y="316.0" width="8" height="10" fill="#0B5145" opacity="0.16"/>
  <rect x="1468.8" y="394.0" width="8" height="10" fill="#0B5145" opacity="0.19"/>
  <rect x="1468.8" y="472.0" width="8" height="10" fill="#0B5145" opacity="0.20"/>
  <rect x="1468.8" y="524.0" width="8" height="10" fill="#0B5145" opacity="0.20"/>
  <rect x="1490.8" y="316.0" width="8" height="10" fill="#0B5145" opacity="0.28"/>
  <rect x="1490.8" y="342.0" width="8" height="10" fill="#0B5145" opacity="0.29"/>
  <rect x="1490.8" y="394.0" width="8" height="10" fill="#0B5145" opacity="0.23"/>
  <rect x="1490.8" y="472.0" width="8" height="10" fill="#0B5145" opacity="0.16"/>
  <rect x="1490.8" y="498.0" width="8" height="10" fill="#0B5145" opacity="0.27"/>
  <rect x="1490.8" y="524.0" width="8" height="10" fill="#0B5145" opacity="0.14"/>
  <rect x="1512.8" y="316.0" width="8" height="10" fill="#0B5145" opacity="0.28"/>
  <rect x="1512.8" y="420.0" width="8" height="10" fill="#0B5145" opacity="0.16"/>
  <rect x="1512.8" y="446.0" width="8" height="10" fill="#0B5145" opacity="0.31"/>
  <rect x="1512.8" y="472.0" width="8" height="10" fill="#0B5145" opacity="0.24"/>
  <rect x="1512.8" y="498.0" width="8" height="10" fill="#0B5145" opacity="0.41"/>
  <rect x="1534.8" y="342.0" width="8" height="10" fill="#0B5145" opacity="0.33"/>
  <rect x="1534.8" y="420.0" width="8" height="10" fill="#0B5145" opacity="0.41"/>
  <rect x="1534.8" y="446.0" width="8" height="10" fill="#0B5145" opacity="0.30"/>
  <rect x="1534.8" y="498.0" width="8" height="10" fill="#0B5145" opacity="0.21"/>
  <rect x="1556.8" y="316.0" width="8" height="10" fill="#0B5145" opacity="0.22"/>
  <rect x="1556.8" y="342.0" width="8" height="10" fill="#0B5145" opacity="0.15"/>
  <rect x="1556.8" y="368.0" width="8" height="10" fill="#0B5145" opacity="0.18"/>
  <rect x="1556.8" y="394.0" width="8" height="10" fill="#0B5145" opacity="0.33"/>
  <rect x="1556.8" y="446.0" width="8" height="10" fill="#0B5145" opacity="0.40"/>
  <rect x="1556.8" y="472.0" width="8" height="10" fill="#0B5145" opacity="0.12"/>
  <rect x="1556.8" y="498.0" width="8" height="10" fill="#0B5145" opacity="0.17"/>
  <rect x="1556.8" y="524.0" width="8" height="10" fill="#0B5145" opacity="0.31"/>
  <rect x="1578.8" y="316.0" width="8" height="10" fill="#0B5145" opacity="0.25"/>
  <rect x="1578.8" y="342.0" width="8" height="10" fill="#0B5145" opacity="0.18"/>
  <rect x="1578.8" y="420.0" width="8" height="10" fill="#0B5145" opacity="0.12"/>
  <rect x="1578.8" y="446.0" width="8" height="10" fill="#0B5145" opacity="0.12"/>
  <rect x="1578.8" y="472.0" width="8" height="10" fill="#0B5145" opacity="0.15"/>
  <rect x="1578.8" y="524.0" width="8" height="10" fill="#0B5145" opacity="0.29"/>
  <rect x="1600.8" y="316.0" width="8" height="10" fill="#0B5145" opacity="0.36"/>
  <rect x="1600.8" y="420.0" width="8" height="10" fill="#0B5145" opacity="0.38"/>
  <rect x="1622.8" y="316.0" width="8" height="10" fill="#0B5145" opacity="0.14"/>
  <rect x="1622.8" y="394.0" width="8" height="10" fill="#0B5145" opacity="0.27"/>
  <rect x="1622.8" y="446.0" width="8" height="10" fill="#0B5145" opacity="0.34"/>
  <rect x="1622.8" y="498.0" width="8" height="10" fill="#0B5145" opacity="0.20"/>
  <rect x="1658.0" y="347.5" width="121.5" height="212.5" fill="rgba(6,24,36,0.08)" stroke="rgba(6,24,36,0.18)" stroke-width="1"/>
  <rect x="1666.0" y="359.5" width="8" height="10" fill="#0B5145" opacity="0.28"/>
  <rect x="1666.0" y="411.5" width="8" height="10" fill="#0B5145" opacity="0.15"/>
  <rect x="1666.0" y="489.5" width="8" height="10" fill="#0B5145" opacity="0.37"/>
  <rect x="1666.0" y="541.5" width="8" height="10" fill="#0B5145" opacity="0.26"/>
  <rect x="1688.0" y="359.5" width="8" height="10" fill="#0B5145" opacity="0.22"/>
  <rect x="1688.0" y="437.5" width="8" height="10" fill="#0B5145" opacity="0.31"/>
  <rect x="1710.0" y="463.5" width="8" height="10" fill="#0B5145" opacity="0.27"/>
  <rect x="1710.0" y="489.5" width="8" height="10" fill="#0B5145" opacity="0.31"/>
  <rect x="1732.0" y="385.5" width="8" height="10" fill="#0B5145" opacity="0.38"/>
  <rect x="1732.0" y="411.5" width="8" height="10" fill="#0B5145" opacity="0.41"/>
  <rect x="1732.0" y="463.5" width="8" height="10" fill="#0B5145" opacity="0.38"/>
  <rect x="1732.0" y="515.5" width="8" height="10" fill="#0B5145" opacity="0.32"/>
  <rect x="1754.0" y="385.5" width="8" height="10" fill="#0B5145" opacity="0.20"/>
  <rect x="1754.0" y="411.5" width="8" height="10" fill="#0B5145" opacity="0.22"/>
  <rect x="1754.0" y="437.5" width="8" height="10" fill="#0B5145" opacity="0.35"/>
  <rect x="1754.0" y="489.5" width="8" height="10" fill="#0B5145" opacity="0.17"/>
  <rect x="1754.0" y="515.5" width="8" height="10" fill="#0B5145" opacity="0.37"/>
  <rect x="1754.0" y="541.5" width="8" height="10" fill="#0B5145" opacity="0.28"/>
  <rect x="1799.5" y="267.3" width="46.1" height="292.7" fill="rgba(6,24,36,0.08)" stroke="rgba(6,24,36,0.18)" stroke-width="1"/>
  <rect x="1807.5" y="279.3" width="8" height="10" fill="#0B5145" opacity="0.22"/>
  <rect x="1807.5" y="331.3" width="8" height="10" fill="#0B5145" opacity="0.18"/>
  <rect x="1807.5" y="383.3" width="8" height="10" fill="#0B5145" opacity="0.32"/>
  <rect x="1829.5" y="331.3" width="8" height="10" fill="#0B5145" opacity="0.32"/>
  <rect x="1829.5" y="383.3" width="8" height="10" fill="#0B5145" opacity="0.22"/>
  <rect x="1829.5" y="461.3" width="8" height="10" fill="#0B5145" opacity="0.41"/>
  <rect x="1829.5" y="487.3" width="8" height="10" fill="#0B5145" opacity="0.17"/>
  <rect x="1854.4" y="370.8" width="117.4" height="189.2" fill="rgba(6,24,36,0.08)" stroke="rgba(6,24,36,0.18)" stroke-width="1"/>
  <rect x="1862.4" y="408.8" width="8" height="10" fill="#0B5145" opacity="0.16"/>
  <rect x="1862.4" y="486.8" width="8" height="10" fill="#0B5145" opacity="0.31"/>
  <rect x="1862.4" y="538.8" width="8" height="10" fill="#0B5145" opacity="0.32"/>
  <rect x="1884.4" y="460.8" width="8" height="10" fill="#0B5145" opacity="0.21"/>
  <rect x="1884.4" y="512.8" width="8" height="10" fill="#0B5145" opacity="0.34"/>
  <rect x="1884.4" y="538.8" width="8" height="10" fill="#0B5145" opacity="0.40"/>
  <rect x="1906.4" y="382.8" width="8" height="10" fill="#0B5145" opacity="0.39"/>
  <rect x="1906.4" y="408.8" width="8" height="10" fill="#0B5145" opacity="0.29"/>
  <rect x="1906.4" y="486.8" width="8" height="10" fill="#0B5145" opacity="0.22"/>
  <rect x="1906.4" y="512.8" width="8" height="10" fill="#0B5145" opacity="0.37"/>
  <rect x="1928.4" y="382.8" width="8" height="10" fill="#0B5145" opacity="0.22"/>
  <rect x="1928.4" y="408.8" width="8" height="10" fill="#0B5145" opacity="0.22"/>
  <rect x="1928.4" y="434.8" width="8" height="10" fill="#0B5145" opacity="0.16"/>
  <rect x="1928.4" y="512.8" width="8" height="10" fill="#0B5145" opacity="0.29"/>
  <rect x="1928.4" y="538.8" width="8" height="10" fill="#0B5145" opacity="0.29"/>
  <rect x="1950.4" y="460.8" width="8" height="10" fill="#0B5145" opacity="0.37"/>
  <rect x="1950.4" y="486.8" width="8" height="10" fill="#0B5145" opacity="0.30"/>
  <rect x="1950.4" y="538.8" width="8" height="10" fill="#0B5145" opacity="0.29"/>
  <rect x="0" y="557" width="1920" height="3" fill="#C7A45B" opacity="0.55"/>
  <text x="960" y="280" text-anchor="middle" dominant-baseline="middle"
        font-family="Georgia, 'Playfair Display', serif" font-size="74"
        fill="#0B5145" opacity="0.85" letter-spacing="1.5">YASAL BİLGİLENDİRME</text>
</svg>