<svg xmlns="http://www.w3.org/2000/svg" width="1200" height="675" viewBox="0 0 1200 675" role="img" aria-label="Proje Gelişmesi">
  <defs>
    <linearGradient id="bg" x1="0" y1="0" x2="1" y2="1">
      <stop offset="0%" stop-color="#061824"/>
      <stop offset="100%" stop-color="#0B5145"/>
    </linearGradient>
    <pattern id="grid" width="40" height="40" patternUnits="userSpaceOnUse">
      <path d="M40 0 L0 0 0 40" fill="none" stroke="rgba(255,255,255,0.07)" stroke-width="1"/>
    </pattern>
  </defs>
  <rect width="1200" height="675" fill="url(#bg)"/>
  <rect width="1200" height="675" fill="url(#grid)"/>
  <rect x="-20.0" y="345.4" width="150.4" height="329.6" fill="rgba(255,255,255,0.06)" stroke="rgba(199,164,91,0.35)" stroke-width="1"/>
  <rect x="-12.0" y="383.4" width="8" height="10" fill="#C7A45B" opacity="0.20"/>
  <rect x="-12.0" y="461.4" width="8" height="10" fill="#C7A45B" opacity="0.20"/>
  <rect x="-12.0" y="487.4" width="8" height="10" fill="#C7A45B" opacity="0.27"/>
  <rect x="-12.0" y="513.4" width="8" height="10" fill="#C7A45B" opacity="0.32"/>
  <rect x="-12.0" y="643.4" width="8" height="10" fill="#C7A45B" opacity="0.13"/>
  <rect x="10.0" y="383.4" width="8" height="10" fill="#C7A45B" opacity="0.28"/>
  <rect x="10.0" y="409.4" width="8" height="10" fill="#C7A45B" opacity="0.33"/>
  <rect x="10.0" y="461.4" width="8" height="10" fill="#C7A45B" opacity="0.34"/>
  <rect x="10.0" y="513.4" width="8" height="10" fill="#C7A45B" opacity="0.34"/>
  <rect x="10.0" y="565.4" width="8" height="10" fill="#C7A45B" opacity="0.37"/>
  <rect x="10.0" y="617.4" width="8" height="10" fill="#C7A45B" opacity="0.33"/>
  <rect x="10.0" y="643.4" width="8" height="10" fill="#C7A45B" opacity="0.14"/>
  <rect x="32.0" y="461.4" width="8" height="10" fill="#C7A45B" opacity="0.21"/>
  <rect x="32.0" y="539.4" width="8" height="10" fill="#C7A45B" opacity="0.14"/>
  <rect x="32.0" y="565.4" width="8" height="10" fill="#C7A45B" opacity="0.37"/>
  <rect x="32.0" y="591.4" width="8" height="10" fill="#C7A45B" opacity="0.15"/>
  <rect x="32.0" y="643.4" width="8" height="10" fill="#C7A45B" opacity="0.30"/>
  <rect x="54.0" y="383.4" width="8" height="10" fill="#C7A45B" opacity="0.29"/>
  <rect x="54.0" y="513.4" width="8" height="10" fill="#C7A45B" opacity="0.31"/>
  <rect x="54.0" y="539.4" width="8" height="10" fill="#C7A45B" opacity="0.15"/>
  <rect x="54.0" y="591.4" width="8" height="10" fill="#C7A45B" opacity="0.14"/>
  <rect x="54.0" y="617.4" width="8" height="10" fill="#C7A45B" opacity="0.15"/>
  <rect x="54.0" y="643.4" width="8" height="10" fill="#C7A45B" opacity="0.12"/>
  <rect x="76.0" y="383.4" width="8" height="10" fill="#C7A45B" opacity="0.30"/>
  <rect x="76.0" y="461.4" width="8" height="10" fill="#C7A45B" opacity="0.34"/>
  <rect x="76.0" y="617.4" width="8" height="10" fill="#C7A45B" opacity="0.18"/>
  <rect x="76.0" y="643.4" width="8" height="10" fill="#C7A45B" opacity="0.19"/>
  <rect x="98.0" y="357.4" width="8" height="10" fill="#C7A45B" opacity="0.14"/>
  <rect x="98.0" y="461.4" width="8" height="10" fill="#C7A45B" opacity="0.22"/>
  <rect x="98.0" y="487.4" width="8" height="10" fill="#C7A45B" opacity="0.14"/>
  <rect x="98.0" y="539.4" width="8" height="10" fill="#C7A45B" opacity="0.13"/>
  <rect x="98.0" y="643.4" width="8" height="10" fill="#C7A45B" opacity="0.15"/>
  <rect x="147.2" y="383.1" width="159.1" height="291.9" fill="rgba(255,255,255,0.06)" stroke="rgba(199,164,91,0.35)" stroke-width="1"/>
  <rect x="155.2" y="473.1" width="8" height="10" fill="#C7A45B" opacity="0.26"/>
  <rect x="155.2" y="525.1" width="8" height="10" fill="#C7A45B" opacity="0.30"/>
  <rect x="155.2" y="603.1" width="8" height="10" fill="#C7A45B" opacity="0.21"/>
  <rect x="155.2" y="655.1" width="8" height="10" fill="#C7A45B" opacity="0.22"/>
  <rect x="177.2" y="395.1" width="8" height="10" fill="#C7A45B" opacity="0.34"/>
  <rect x="177.2" y="421.1" width="8" height="10" fill="#C7A45B" opacity="0.26"/>
  <rect x="177.2" y="473.1" width="8" height="10" fill="#C7A45B" opacity="0.28"/>
  <rect x="177.2" y="551.1" width="8" height="10" fill="#C7A45B" opacity="0.28"/>
  <rect x="177.2" y="577.1" width="8" height="10" fill="#C7A45B" opacity="0.33"/>
  <rect x="177.2" y="603.1" width="8" height="10" fill="#C7A45B" opacity="0.15"/>
  <rect x="199.2" y="395.1" width="8" height="10" fill="#C7A45B" opacity="0.25"/>
  <rect x="199.2" y="447.1" width="8" height="10" fill="#C7A45B" opacity="0.14"/>
  <rect x="199.2" y="473.1" width="8" height="10" fill="#C7A45B" opacity="0.34"/>
  <rect x="199.2" y="525.1" width="8" height="10" fill="#C7A45B" opacity="0.14"/>
  <rect x="199.2" y="551.1" width="8" height="10" fill="#C7A45B" opacity="0.42"/>
  <rect x="199.2" y="603.1" width="8" height="10" fill="#C7A45B" opacity="0.21"/>
  <rect x="199.2" y="629.1" width="8" height="10" fill="#C7A45B" opacity="0.24"/>
  <rect x="199.2" y="655.1" width="8" height="10" fill="#C7A45B" opacity="0.24"/>
  <rect x="221.2" y="395.1" width="8" height="10" fill="#C7A45B" opacity="0.16"/>
  <rect x="221.2" y="421.1" width="8" height="10" fill="#C7A45B" opacity="0.13"/>
  <rect x="221.2" y="499.1" width="8" height="10" fill="#C7A45B" opacity="0.26"/>
  <rect x="221.2" y="525.1" width="8" height="10" fill="#C7A45B" opacity="0.15"/>
  <rect x="221.2" y="577.1" width="8" height="10" fill="#C7A45B" opacity="0.38"/>
  <rect x="221.2" y="603.1" width="8" height="10" fill="#C7A45B" opacity="0.35"/>
  <rect x="243.2" y="395.1" width="8" height="10" fill="#C7A45B" opacity="0.41"/>
  <rect x="243.2" y="421.1" width="8" height="10" fill="#C7A45B" opacity="0.42"/>
  <rect x="243.2" y="447.1" width="8" height="10" fill="#C7A45B" opacity="0.24"/>
  <rect x="243.2" y="525.1" width="8" height="10" fill="#C7A45B" opacity="0.12"/>
  <rect x="243.2" y="551.1" width="8" height="10" fill="#C7A45B" opacity="0.28"/>
  <rect x="243.2" y="577.1" width="8" height="10" fill="#C7A45B" opacity="0.19"/>
  <rect x="243.2" y="603.1" width="8" height="10" fill="#C7A45B" opacity="0.12"/>
  <rect x="243.2" y="629.1" width="8" height="10" fill="#C7A45B" opacity="0.13"/>
  <rect x="265.2" y="421.1" width="8" height="10" fill="#C7A45B" opacity="0.30"/>
  <rect x="265.2" y="473.1" width="8" height="10" fill="#C7A45B" opacity="0.21"/>
  <rect x="265.2" y="499.1" width="8" height="10" fill="#C7A45B" opacity="0.27"/>
  <rect x="265.2" y="525.1" width="8" height="10" fill="#C7A45B" opacity="0.38"/>
  <rect x="287.2" y="447.1" width="8" height="10" fill="#C7A45B" opacity="0.26"/>
  <rect x="287.2" y="499.1" width="8" height="10" fill="#C7A45B" opacity="0.15"/>
  <rect x="287.2" y="525.1" width="8" height="10" fill="#C7A45B" opacity="0.26"/>
  <rect x="287.2" y="577.1" width="8" height="10" fill="#C7A45B" opacity="0.34"/>
  <rect x="287.2" y="629.1" width="8" height="10" fill="#C7A45B" opacity="0.39"/>
  <rect x="287.2" y="655.1" width="8" height="10" fill="#C7A45B" opacity="0.35"/>
  <rect x="318.6" y="423.4" width="84.5" height="251.6" fill="rgba(255,255,255,0.06)" stroke="rgba(199,164,91,0.35)" stroke-width="1"/>
  <rect x="326.6" y="435.4" width="8" height="10" fill="#C7A45B" opacity="0.38"/>
  <rect x="326.6" y="461.4" width="8" height="10" fill="#C7A45B" opacity="0.37"/>
  <rect x="326.6" y="487.4" width="8" height="10" fill="#C7A45B" opacity="0.20"/>
  <rect x="326.6" y="513.4" width="8" height="10" fill="#C7A45B" opacity="0.23"/>
  <rect x="326.6" y="539.4" width="8" height="10" fill="#C7A45B" opacity="0.23"/>
  <rect x="326.6" y="565.4" width="8" height="10" fill="#C7A45B" opacity="0.39"/>
  <rect x="326.6" y="617.4" width="8" height="10" fill="#C7A45B" opacity="0.26"/>
  <rect x="326.6" y="643.4" width="8" height="10" fill="#C7A45B" opacity="0.21"/>
  <rect x="348.6" y="461.4" width="8" height="10" fill="#C7A45B" opacity="0.14"/>
  <rect x="348.6" y="513.4" width="8" height="10" fill="#C7A45B" opacity="0.23"/>
  <rect x="348.6" y="565.4" width="8" height="10" fill="#C7A45B" opacity="0.24"/>
  <rect x="348.6" y="591.4" width="8" height="10" fill="#C7A45B" opacity="0.18"/>
  <rect x="348.6" y="617.4" width="8" height="10" fill="#C7A45B" opacity="0.26"/>
  <rect x="370.6" y="435.4" width="8" height="10" fill="#C7A45B" opacity="0.21"/>
  <rect x="370.6" y="539.4" width="8" height="10" fill="#C7A45B" opacity="0.24"/>
  <rect x="370.6" y="591.4" width="8" height="10" fill="#C7A45B" opacity="0.20"/>
  <rect x="370.6" y="617.4" width="8" height="10" fill="#C7A45B" opacity="0.15"/>
  <rect x="423.9" y="395.5" width="41.3" height="279.5" fill="rgba(255,255,255,0.06)" stroke="rgba(199,164,91,0.35)" stroke-width="1"/>
  <rect x="431.9" y="407.5" width="8" height="10" fill="#C7A45B" opacity="0.34"/>
  <rect x="431.9" y="433.5" width="8" height="10" fill="#C7A45B" opacity="0.15"/>
  <rect x="431.9" y="511.5" width="8" height="10" fill="#C7A45B" opacity="0.22"/>
  <rect x="431.9" y="641.5" width="8" height="10" fill="#C7A45B" opacity="0.17"/>
  <rect x="475.2" y="322.8" width="47.9" height="352.2" fill="rgba(255,255,255,0.06)" stroke="rgba(199,164,91,0.35)" stroke-width="1"/>
  <rect x="483.2" y="334.8" width="8" height="10" fill="#C7A45B" opacity="0.25"/>
  <rect x="483.2" y="464.8" width="8" height="10" fill="#C7A45B" opacity="0.25"/>
  <rect x="483.2" y="568.8" width="8" height="10" fill="#C7A45B" opacity="0.21"/>
  <rect x="483.2" y="620.8" width="8" height="10" fill="#C7A45B" opacity="0.19"/>
  <rect x="483.2" y="646.8" width="8" height="10" fill="#C7A45B" opacity="0.25"/>
  <rect x="505.2" y="334.8" width="8" height="10" fill="#C7A45B" opacity="0.40"/>
  <rect x="505.2" y="360.8" width="8" height="10" fill="#C7A45B" opacity="0.14"/>
  <rect x="505.2" y="386.8" width="8" height="10" fill="#C7A45B" opacity="0.26"/>
  <rect x="505.2" y="438.8" width="8" height="10" fill="#C7A45B" opacity="0.33"/>
  <rect x="505.2" y="464.8" width="8" height="10" fill="#C7A45B" opacity="0.30"/>
  <rect x="505.2" y="594.8" width="8" height="10" fill="#C7A45B" opacity="0.23"/>
  <rect x="505.2" y="620.8" width="8" height="10" fill="#C7A45B" opacity="0.38"/>
  <rect x="505.2" y="646.8" width="8" height="10" fill="#C7A45B" opacity="0.32"/>
  <rect x="543.2" y="488.9" width="73.7" height="186.1" fill="rgba(255,255,255,0.06)" stroke="rgba(199,164,91,0.35)" stroke-width="1"/>
  <rect x="551.2" y="500.9" width="8" height="10" fill="#C7A45B" opacity="0.13"/>
  <rect x="551.2" y="604.9" width="8" height="10" fill="#C7A45B" opacity="0.25"/>
  <rect x="551.2" y="630.9" width="8" height="10" fill="#C7A45B" opacity="0.25"/>
  <rect x="551.2" y="656.9" width="8" height="10" fill="#C7A45B" opacity="0.24"/>
  <rect x="573.2" y="500.9" width="8" height="10" fill="#C7A45B" opacity="0.13"/>
  <rect x="573.2" y="526.9" width="8" height="10" fill="#C7A45B" opacity="0.16"/>
  <rect x="573.2" y="578.9" width="8" height="10" fill="#C7A45B" opacity="0.25"/>
  <rect x="573.2" y="630.9" width="8" height="10" fill="#C7A45B" opacity="0.19"/>
  <rect x="573.2" y="656.9" width="8" height="10" fill="#C7A45B" opacity="0.31"/>
  <rect x="595.2" y="526.9" width="8" height="10" fill="#C7A45B" opacity="0.31"/>
  <rect x="595.2" y="604.9" width="8" height="10" fill="#C7A45B" opacity="0.19"/>
  <rect x="595.2" y="630.9" width="8" height="10" fill="#C7A45B" opacity="0.20"/>
  <rect x="595.2" y="656.9" width="8" height="10" fill="#C7A45B" opacity="0.37"/>
  <rect x="635.0" y="454.5" width="140.9" height="220.5" fill="rgba(255,255,255,0.06)" stroke="rgba(199,164,91,0.35)" stroke-width="1"/>
  <rect x="643.0" y="466.5" width="8" height="10" fill="#C7A45B" opacity="0.17"/>
  <rect x="643.0" y="596.5" width="8" height="10" fill="#C7A45B" opacity="0.29"/>
  <rect x="643.0" y="622.5" width="8" height="10" fill="#C7A45B" opacity="0.19"/>
  <rect x="665.0" y="466.5" width="8" height="10" fill="#C7A45B" opacity="0.17"/>
  <rect x="665.0" y="492.5" width="8" height="10" fill="#C7A45B" opacity="0.40"/>
  <rect x="665.0" y="518.5" width="8" height="10" fill="#C7A45B" opacity="0.29"/>
  <rect x="665.0" y="622.5" width="8" height="10" fill="#C7A45B" opacity="0.21"/>
  <rect x="665.0" y="648.5" width="8" height="10" fill="#C7A45B" opacity="0.42"/>
  <rect x="687.0" y="466.5" width="8" height="10" fill="#C7A45B" opacity="0.29"/>
  <rect x="687.0" y="492.5" width="8" height="10" fill="#C7A45B" opacity="0.27"/>
  <rect x="687.0" y="570.5" width="8" height="10" fill="#C7A45B" opacity="0.17"/>
  <rect x="687.0" y="648.5" width="8" height="10" fill="#C7A45B" opacity="0.31"/>
  <rect x="709.0" y="466.5" width="8" height="10" fill="#C7A45B" opacity="0.36"/>
  <rect x="709.0" y="518.5" width="8" height="10" fill="#C7A45B" opacity="0.13"/>
  <rect x="709.0" y="570.5" width="8" height="10" fill="#C7A45B" opacity="0.19"/>
  <rect x="709.0" y="622.5" width="8" height="10" fill="#C7A45B" opacity="0.28"/>
  <rect x="709.0" y="648.5" width="8" height="10" fill="#C7A45B" opacity="0.22"/>
  <rect x="731.0" y="466.5" width="8" height="10" fill="#C7A45B" opacity="0.18"/>
  <rect x="731.0" y="518.5" width="8" height="10" fill="#C7A45B" opacity="0.18"/>
  <rect x="753.0" y="466.5" width="8" height="10" fill="#C7A45B" opacity="0.18"/>
  <rect x="753.0" y="518.5" width="8" height="10" fill="#C7A45B" opacity="0.13"/>
  <rect x="753.0" y="570.5" width="8" height="10" fill="#C7A45B" opacity="0.42"/>
  <rect x="753.0" y="596.5" width="8" height="10" fill="#C7A45B" opacity="0.41"/>
  <rect x="753.0" y="622.5" width="8" height="10" fill="#C7A45B" opacity="0.34"/>
  <rect x="800.2" y="477.7" width="83.4" height="197.3" fill="rgba(255,255,255,0.06)" stroke="rgba(199,164,91,0.35)" stroke-width="1"/>
  <rect x="808.2" y="567.7" width="8" height="10" fill="#C7A45B" opacity="0.33"/>
  <rect x="808.2" y="645.7" width="8" height="10" fill="#C7A45B" opacity="0.32"/>
  <rect x="830.2" y="515.7" width="8" height="10" fill="#C7A45B" opacity="0.25"/>
  <rect x="830.2" y="567.7" width="8" height="10" fill="#C7A45B" opacity="0.23"/>
  <rect x="830.2" y="593.7" width="8" height="10" fill="#C7A45B" opacity="0.21"/>
  <rect x="852.2" y="515.7" width="8" height="10" fill="#C7A45B" opacity="0.38"/>
  <rect x="852.2" y="619.7" width="8" height="10" fill="#C7A45B" opacity="0.36"/>
  <rect x="852.2" y="645.7" width="8" height="10" fill="#C7A45B" opacity="0.22"/>
  <rect x="893.6" y="299.4" width="118.4" height="375.6" fill="rgba(255,255,255,0.06)" stroke="rgba(199,164,91,0.35)" stroke-width="1"/>
  <rect x="901.6" y="311.4" width="8" height="10" fill="#C7A45B" opacity="0.38"/>
  <rect x="901.6" y="415.4" width="8" height="10" fill="#C7A45B" opacity="0.24"/>
  <rect x="901.6" y="441.4" width="8" height="10" fill="#C7A45B" opacity="0.23"/>
  <rect x="901.6" y="467.4" width="8" height="10" fill="#C7A45B" opacity="0.36"/>
  <rect x="901.6" y="493.4" width="8" height="10" fill="#C7A45B" opacity="0.41"/>
  <rect x="901.6" y="623.4" width="8" height="10" fill="#C7A45B" opacity="0.26"/>
  <rect x="923.6" y="311.4" width="8" height="10" fill="#C7A45B" opacity="0.16"/>
  <rect x="923.6" y="389.4" width="8" height="10" fill="#C7A45B" opacity="0.23"/>
  <rect x="923.6" y="441.4" width="8" height="10" fill="#C7A45B" opacity="0.15"/>
  <rect x="923.6" y="467.4" width="8" height="10" fill="#C7A45B" opacity="0.26"/>
  <rect x="923.6" y="493.4" width="8" height="10" fill="#C7A45B" opacity="0.18"/>
  <rect x="923.6" y="519.4" width="8" height="10" fill="#C7A45B" opacity="0.29"/>
  <rect x="923.6" y="545.4" width="8" height="10" fill="#C7A45B" opacity="0.38"/>
  <rect x="923.6" y="571.4" width="8" height="10" fill="#C7A45B" opacity="0.12"/>
  <rect x="923.6" y="597.4" width="8" height="10" fill="#C7A45B" opacity="0.15"/>
  <rect x="923.6" y="623.4" width="8" height="10" fill="#C7A45B" opacity="0.19"/>
  <rect x="945.6" y="311.4" width="8" height="10" fill="#C7A45B" opacity="0.21"/>
  <rect x="945.6" y="363.4" width="8" height="10" fill="#C7A45B" opacity="0.33"/>
  <rect x="945.6" y="389.4" width="8" height="10" fill="#C7A45B" opacity="0.12"/>
  <rect x="945.6" y="519.4" width="8" height="10" fill="#C7A45B" opacity="0.27"/>
  <rect x="945.6" y="571.4" width="8" height="10" fill="#C7A45B" opacity="0.14"/>
  <rect x="945.6" y="597.4" width="8" height="10" fill="#C7A45B" opacity="0.31"/>
  <rect x="945.6" y="649.4" width="8" height="10" fill="#C7A45B" opacity="0.40"/>
  <rect x="967.6" y="311.4" width="8" height="10" fill="#C7A45B" opacity="0.34"/>
  <rect x="967.6" y="363.4" width="8" height="10" fill="#C7A45B" opacity="0.16"/>
  <rect x="967.6" y="493.4" width="8" height="10" fill="#C7A45B" opacity="0.37"/>
  <rect x="967.6" y="519.4" width="8" height="10" fill="#C7A45B" opacity="0.17"/>
  <rect x="967.6" y="597.4" width="8" height="10" fill="#C7A45B" opacity="0.41"/>
  <rect x="967.6" y="623.4" width="8" height="10" fill="#C7A45B" opacity="0.30"/>
  <rect x="967.6" y="649.4" width="8" height="10" fill="#C7A45B" opacity="0.21"/>
  <rect x="989.6" y="363.4" width="8" height="10" fill="#C7A45B" opacity="0.16"/>
  <rect x="989.6" y="415.4" width="8" height="10" fill="#C7A45B" opacity="0.13"/>
  <rect x="989.6" y="493.4" width="8" height="10" fill="#C7A45B" opacity="0.15"/>
  <rect x="989.6" y="519.4" width="8" height="10" fill="#C7A45B" opacity="0.37"/>
  <rect x="989.6" y="571.4" width="8" height="10" fill="#C7A45B" opacity="0.16"/>
  <rect x="1025.7" y="288.8" width="106.9" height="386.2" fill="rgba(255,255,255,0.06)" stroke="rgba(199,164,91,0.35)" stroke-width="1"/>
  <rect x="1033.7" y="300.8" width="8" height="10" fill="#C7A45B" opacity="0.40"/>
  <rect x="1033.7" y="326.8" width="8" height="10" fill="#C7A45B" opacity="0.18"/>
  <rect x="1033.7" y="352.8" width="8" height="10" fill="#C7A45B" opacity="0.20"/>
  <rect x="1033.7" y="378.8" width="8" height="10" fill="#C7A45B" opacity="0.26"/>
  <rect x="1033.7" y="404.8" width="8" height="10" fill="#C7A45B" opacity="0.19"/>
  <rect x="1033.7" y="456.8" width="8" height="10" fill="#C7A45B" opacity="0.38"/>
  <rect x="1033.7" y="482.8" width="8" height="10" fill="#C7A45B" opacity="0.22"/>
  <rect x="1033.7" y="638.8" width="8" height="10" fill="#C7A45B" opacity="0.35"/>
  <rect x="1055.7" y="300.8" width="8" height="10" fill="#C7A45B" opacity="0.36"/>
  <rect x="1055.7" y="378.8" width="8" height="10" fill="#C7A45B" opacity="0.25"/>
  <rect x="1055.7" y="404.8" width="8" height="10" fill="#C7A45B" opacity="0.18"/>
  <rect x="1055.7" y="456.8" width="8" height="10" fill="#C7A45B" opacity="0.18"/>
  <rect x="1055.7" y="508.8" width="8" height="10" fill="#C7A45B" opacity="0.24"/>
  <rect x="1055.7" y="534.8" width="8" height="10" fill="#C7A45B" opacity="0.32"/>
  <rect x="1055.7" y="586.8" width="8" height="10" fill="#C7A45B" opacity="0.26"/>
  <rect x="1055.7" y="638.8" width="8" height="10" fill="#C7A45B" opacity="0.32"/>
  <rect x="1077.7" y="352.8" width="8" height="10" fill="#C7A45B" opacity="0.19"/>
  <rect x="1077.7" y="534.8" width="8" height="10" fill="#C7A45B" opacity="0.35"/>
  <rect x="1077.7" y="560.8" width="8" height="10" fill="#C7A45B" opacity="0.13"/>
  <rect x="1077.7" y="586.8" width="8" height="10" fill="#C7A45B" opacity="0.33"/>
  <rect x="1077.7" y="612.8" width="8" height="10" fill="#C7A45B" opacity="0.36"/>
  <rect x="1077.7" y="638.8" width="8" height="10" fill="#C7A45B" opacity="0.19"/>
  <rect x="1099.7" y="300.8" width="8" height="10" fill="#C7A45B" opacity="0.35"/>
  <rect x="1099.7" y="326.8" width="8" height="10" fill="#C7A45B" opacity="0.21"/>
  <rect x="1099.7" y="352.8" width="8" height="10" fill="#C7A45B" opacity="0.18"/>
  <rect x="1099.7" y="378.8" width="8" height="10" fill="#C7A45B" opacity="0.22"/>
  <rect x="1099.7" y="404.8" width="8" height="10" fill="#C7A45B" opacity="0.20"/>
  <rect x="1099.7" y="430.8" width="8" height="10" fill="#C7A45B" opacity="0.33"/>
  <rect x="1099.7" y="508.8" width="8" height="10" fill="#C7A45B" opacity="0.37"/>
  <rect x="1099.7" y="534.8" width="8" height="10" fill="#C7A45B" opacity="0.23"/>
  <rect x="1099.7" y="560.8" width="8" height="10" fill="#C7A45B" opacity="0.33"/>
  <rect x="1099.7" y="612.8" width="8" height="10" fill="#C7A45B" opacity="0.28"/>
  <rect x="1099.7" y="638.8" width="8" height="10" fill="#C7A45B" opacity="0.23"/>
  <rect x="1142.6" y="351.9" width="73.9" height="323.1" fill="rgba(255,255,255,0.06)" stroke="rgba(199,164,91,0.35)" stroke-width="1"/>
  <rect x="1150.6" y="363.9" width="8" height="10" fill="#C7A45B" opacity="0.25"/>
  <rect x="1150.6" y="415.9" width="8" height="10" fill="#C7A45B" opacity="0.23"/>
  <rect x="1150.6" y="467.9" width="8" height="10" fill="#C7A45B" opacity="0.18"/>
  <rect x="1150.6" y="493.9" width="8" height="10" fill="#C7A45B" opacity="0.31"/>
  <rect x="1150.6" y="545.9" width="8" height="10" fill="#C7A45B" opacity="0.35"/>
  <rect x="1150.6" y="649.9" width="8" height="10" fill="#C7A45B" opacity="0.21"/>
  <rect x="1172.6" y="389.9" width="8" height="10" fill="#C7A45B" opacity="0.20"/>
  <rect x="1172.6" y="441.9" width="8" height="10" fill="#C7A45B" opacity="0.23"/>
  <rect x="1172.6" y="467.9" width="8" height="10" fill="#C7A45B" opacity="0.17"/>
  <rect x="1172.6" y="519.9" width="8" height="10" fill="#C7A45B" opacity="0.23"/>
  <rect x="1172.6" y="545.9" width="8" height="10" fill="#C7A45B" opacity="0.15"/>
  <rect x="1172.6" y="571.9" width="8" height="10" fill="#C7A45B" opacity="0.13"/>
  <rect x="1172.6" y="597.9" width="8" height="10" fill="#C7A45B" opacity="0.29"/>
  <rect x="1194.6" y="363.9" width="8" height="10" fill="#C7A45B" opacity="0.36"/>
  <rect x="1194.6" y="389.9" width="8" height="10" fill="#C7A45B" opacity="0.29"/>
  <rect x="1194.6" y="441.9" width="8" height="10" fill="#C7A45B" opacity="0.35"/>
  <rect x="1194.6" y="467.9" width="8" height="10" fill="#C7A45B" opacity="0.36"/>
  <rect x="1194.6" y="545.9" width="8" height="10" fill="#C7A45B" opacity="0.36"/>
  <rect x="1194.6" y="649.9" width="8" height="10" fill="#C7A45B" opacity="0.25"/>
  <rect x="0" y="672" width="1200" height="3" fill="#C7A45B" opacity="0.55"/>
  <text x="600" y="337.5" text-anchor="middle" dominant-baseline="middle"
        font-family="Georgia, 'Playfair Display', serif" font-size="46"
        fill="#C7A45B" opacity="0.85" letter-spacing="1.5">Proje Gelişmesi</text>
</svg>